<?xml version="1.0" encoding="utf-8"?>
<!-- Generator: Adobe Illustrator 24.1.2, SVG Export Plug-In . SVG Version: 6.00 Build 0)  -->
<svg version="1.1" id="Layer_1" xmlns="http://www.w3.org/2000/svg" xmlns:xlink="http://www.w3.org/1999/xlink" x="0px" y="0px"
	 viewBox="0 0 1638.8 378.8" style="enable-background:new 0 0 1638.8 378.8;" xml:space="preserve">
<style type="text/css">
	.st0{display:none;fill:#FFFFFF;}
	.st1{fill:url(#SVGID_1_);}
	.st2{fill:#333333;}
	.st3{fill:#FFFFFF;}
</style>
<polygon class="st0" points="-133.6,-85.6 1772.4,-85.6 1772.4,464.4 -133.6,464.4 -133.6,-85.6 "/>
<linearGradient id="SVGID_1_" gradientUnits="userSpaceOnUse" x1="192.4595" y1="373.0859" x2="192.4595" y2="6.5389">
	<stop  offset="0" style="stop-color:#6C03FB"/>
	<stop  offset="1" style="stop-color:#1CCCDA"/>
</linearGradient>
<path class="st1" d="M99.8,6.6c57.6,0,115.1,0,172.7,0c6.4,0.1,12.6-0.4,19,0.5c7.3,0.6,14.5,1.4,21.7,3c26,4.9,48.3,25.1,56.9,50.1
	c2.5,8.1,4.1,16.5,4.8,25c0.5,5.4,1.4,10.7,1.2,16.1c-0.1,60.2,0,120.5,0,180.7c-1.4,16.5-2.6,33.8-10.9,48.6
	c-7.5,13.8-19.2,25.3-33.2,32.4c-12.1,6.4-27.1,8.3-40.6,9.5c-6.3,0.8-12.5,0.5-18.9,0.5c-55.4,0-110.9,0-166.4,0
	c-5.2,0.2-10.2-0.2-15.3-0.8c-9.6-0.8-19.1-2.3-28.4-5.2c-22-7.6-40-25.6-47.5-47.6c-2.5-8-4.1-16.4-4.7-24.8
	c-0.3-4.2-1.1-8.4-1.2-12.6c0-61.4,0-122.9,0-184.3c0.1-4.5,1-9,1.3-13.5c0.4-5.4,1.3-10.8,2.5-16.1C17.9,43,37.6,21.4,61.6,12.8
	C73.9,8.7,87,7.6,99.8,6.6L99.8,6.6z"/>
<path class="st2" d="M746.4,66.8c14.8-0.1,29.6,0,44.5,0c0,70.5,0,141.1,0,211.6c-14.8,0-29.6,0-44.5,0
	C746.4,207.9,746.4,137.4,746.4,66.8L746.4,66.8z"/>
<path class="st3" d="M192.4,76.7c4.3-0.3,7,2.1,9.8,4.9c18.4,18.4,36.9,36.9,55.3,55.3c5.3,5.2,10.3,10.8,14.5,17
	c7.4,11,12.5,23.5,14.8,36.5c4.5,24.5-1,50.6-15.2,71.1c-11.2,16.3-27.5,29.1-46.1,35.9c-14.3,5.3-29.8,7-44.9,5.2
	c-17.9-2.2-35.2-9.5-49.1-21.1c-14.1-11.5-24.8-27.1-30.4-44.4c-4.7-15-6.3-30.6-3.2-46.1c3.1-18.3,11.7-35.6,24.5-49
	c2.7-2.9,5.3-5.6,9.6-5.4c3.7-0.2,6.4,1.8,8.9,4.2c9.3,9.3,18.6,18.6,27.9,27.9c2.4,2.5,4.3,5.3,4.1,9c0,4.7-3.4,7.2-6,10.6
	c-8.3,10.6-8.6,26.1-0.9,37.2c6.4,9.3,17.8,14.7,29,13.8c11.1-0.9,21-7.7,26-17.6c5.8-11.6,3.8-26.6-5.3-35.9
	c-9.7-9.7-19.5-19.5-29.3-29.2c-2.4-2.5-4.6-4.9-4.7-8.5c-0.6-6.2,5.2-12.1,11.4-11.3c3.4,0,6.1,2.4,8.5,4.6
	c9.7,9.8,19.5,19.4,29.2,29.3c11.8,12.2,17.2,30,13.9,46.7c-3.1,17.2-15.3,32.2-31.3,39.1c-9.1,3.7-19.5,5.4-29.2,3.6
	c-8.8-1.3-17.2-4.9-24.3-10.4c-12.1-9.2-19.7-23.6-20.7-38.7c-0.7-11.4,2.4-23.1,8.7-32.7c-5-5.1-10.1-10.1-15.1-15.2
	c-9.9,12.8-15.1,29.1-14.7,45.2c-0.1,14.8,4.7,29.3,13,41.4c9.4,13.7,23.5,24,39.4,28.9c10.3,3.3,21.1,3.7,31.8,2.7
	c16-2.1,31.5-9.6,42.8-21.2c10.3-10,17.5-23.4,20.4-37.5c1.6-7.4,1.5-15.3,1.1-22.8c-1.6-16.9-9.5-33.2-21.6-45
	c-19.4-19.3-38.7-38.7-58-57.9c-2.6-2.6-5-5.1-5.1-9C181.3,82.1,186.5,76.3,192.4,76.7L192.4,76.7z"/>
<path class="st3" d="M158.7,107.3c6.5-2.8,14.1,2.5,14.4,9.3c0.4,5.5-3.9,10.7-9.4,11.3c-5.1,0.6-10.2-2.7-11.5-7.7
	C150.4,115,153.7,109.3,158.7,107.3L158.7,107.3z"/>
<path class="st2" d="M484.8,115.1c8.8-0.3,17.1-0.5,25.7,1.6c11.9,2.7,23,8.1,31.4,17c9.1,9.3,13.8,22.2,13.6,35.2
	c-14.7,0-29.4,0-44.1,0c-0.4-3.9-0.7-7.5-3.2-10.8c-3.4-4.7-9.6-6.1-15.1-6.2c-5.2-0.1-11.7,0.9-15.6,4.7c-3.2,3-4.4,7.8-3.1,12
	c1.5,3.6,5.1,6.1,8.4,7.9c8.7,4.8,19,7.1,28.9,8.4c11.8,1.5,23.8,6.3,32.6,14.3c6.8,6.1,11.5,14.4,12.6,23.5
	c1.6,12.2-1.4,25.3-8.7,35.3c-7.1,9.9-17.4,16.5-28.8,20.6c-12.5,4.5-25.5,5.1-38.6,3.7c-16-2.2-31.5-9.1-42-21.7
	c-7.5-8.9-11-20.1-11.2-31.7c14.8-0.1,29.5,0,44.2,0c0.6,3.9,0.9,7.4,3.5,10.6c3.7,4.5,10.2,6.3,15.8,6.4c6.5,0.3,13.4-1.4,18.1-6.2
	c3.7-3.8,5.1-9.9,1.8-14.5c-4.9-6.7-14.2-9.4-22-10.5c-11.9-1.6-23.6-5.4-34.1-11.3c-9.6-5.6-18.2-13.1-22.8-23.5
	c-3.4-7.7-3.1-15.9-1.5-24c2.4-10.4,8.3-19.8,16.6-26.5C457.6,120.9,471.4,116.2,484.8,115.1L484.8,115.1z"/>
<path class="st2" d="M1270.4,115c0,13.2,0,26.4,0,39.6c-7.3,0.7-14.3,1.9-20.7,5.5c-11.3,6.1-19.8,17.1-22.4,29.7
	c-1.2,5.6-0.8,10.8-0.9,16.4c0,24.1,0,48.2,0,72.3c-14.8,0-29.6,0-44.4,0c0-27.2,0-54.4,0-81.5c0.3-23.6,9.9-46.7,27.8-62.3
	c10.7-9.4,23.7-15.6,37.7-18.3C1255.1,114.6,1262.7,114.9,1270.4,115L1270.4,115z"/>
<path class="st2" d="M727.4,161.7c-6.4-12.5-15.9-23.2-27.4-31.1c-16.3-11.4-36.7-16.9-56.5-15.8c-16.5,1-32.7,6.3-46.3,15.8
	c-12.3,8.6-22.4,20.2-28.7,33.9c-7.6,16.1-9.5,34.9-5.6,52.3c3.3,15.2,11.2,29,22,40.1c14.1,14.1,33,23.2,52.8,25.5
	c12.1,1.1,24.1,0.7,35.7-2.8c20.3-5.7,38.4-18.6,49.8-36.4C739.1,219.3,740.7,187.2,727.4,161.7z M689.3,214.3
	c-4.2,11.7-13.5,21.2-25,25.7c-14.5,5.7-31.8,2.9-43.6-7.4c-13.5-11.3-18.8-30.5-13.3-47.2c5.4-17.4,22.1-30.2,40.3-30.3
	c13.9-0.5,27.8,6.5,35.8,17.8C692.2,184.6,694.4,200.5,689.3,214.3z"/>
<path class="st2" d="M972.2,172.8c-6.1-18.2-18.9-34-35.1-44.2c-24.2-15.5-55.6-18.1-82.3-7.4c-16.6,6.6-31.1,18.3-40.8,33.3
	c-9.5,14.6-14.1,32.2-12.9,49.6c0.8,16.8,7.5,33.4,18.1,46.4c11.7,14.5,28.3,25,46.3,29.7c11.5,3.1,23.9,3.4,35.6,2.1
	c17.1-2.3,33.4-9.6,46.4-20.9c15.8-13.6,26.5-33.4,28.4-54.2C977,195.5,976,183.9,972.2,172.8z M913.8,234.8
	c-15.2,11.2-37.2,10.7-51.9-1.2c-15.6-12.1-20.9-34.3-13-52.3c6.5-15.4,22.1-26.1,38.9-26.3c5.6-0.1,11,0.8,16.2,2.8
	c14,5.3,24.5,18,27.3,32.7C934.6,207.3,927.7,224.8,913.8,234.8z"/>
<path class="st2" d="M1114.1,66.8c-0.1,21.3,0.1,42.5-0.1,63.8c-12.3-10.5-28-16-44.1-16c-13,0.3-25.8,3-37.5,8.7
	c-16.9,8-31.3,21.7-39.8,38.4c-7.3,14.2-10.3,30.6-8.4,46.5c1.9,17.4,9.7,34,21.6,46.7c18.8,20.4,47.5,31,75.1,27.3
	c14.3-2.5,27.4-10.5,36-22.2c0.5,6.1,0.5,12.2,0.4,18.4c13.7,0,27.5,0,41.2,0c0-70.5,0-141.1,0-211.6
	C1143.7,66.8,1128.9,66.8,1114.1,66.8z M1113.4,213.6c-4.3,12.5-14.9,22.9-27.5,27c-15.8,5.3-33.9,1-45.4-11.1
	c-11.8-11.9-15.6-30.3-9.7-45.9c6-16.5,22.2-28.3,39.7-28.6c14.9-0.7,29.4,6.8,37.8,19.1C1116.2,185.5,1118.1,200.6,1113.4,213.6z"
	/>
<path class="st2" d="M1439,166.4c-7.6-17.5-21.2-31.9-37.9-40.9c-14.7-7.9-31.6-11.6-48.3-10.6c-18.3,1-36,7.5-50.4,18.9
	c-13.2,10.2-23.2,24.5-28.3,40.4c-3.9,12-4.7,24.8-2.9,37.2c2.6,17.2,10.9,33.2,23.1,45.6c13.1,13.2,30.4,22,48.8,25
	c13.7,2,28,1.4,41.3-2.6c18.4-5.5,35-17.1,46.2-32.8c7.5-10.5,12.5-22.8,14.4-35.6C1447.3,195.9,1444.9,180.2,1439,166.4z
	 M1376.4,238.7c-15.7,7.6-35.5,4.5-48-7.6c-12.5-11.7-17.2-30.5-11.4-46.7c5.6-16.9,22-29.2,40-29.4c7.8-0.2,15.5,1.7,22.3,5.6
	c14,7.8,22.5,23.5,22,39.4C1401.1,216.3,1391.2,231.8,1376.4,238.7z"/>
<path class="st2" d="M1619.9,162.3c-7.8-15.7-20.7-28.6-36.1-36.9c-16.6-9-36.3-12.5-55-9.9c-17.2,2.2-33.8,9.7-46.9,21.1
	c-17.3,15-28.2,37.2-28.5,60.3c0,44.8,0,89.5,0,134.3c14.7,0,29.5,0,44.2,0c0-21.8,0-43.7,0-65.5c11.7,11,27.2,17.6,43.4,17.3
	c28.7,0.4,56.8-14,73-37.8c9.8-14.1,14.8-31.3,14.5-48.4C1628.1,184.8,1625.3,173.1,1619.9,162.3z M1553.9,240.6
	c-17,5.7-36.5,0.2-47.9-13.8c-11.8-13.8-13.3-34.8-3.9-50.4c7.5-12.8,21.6-21.2,36.5-21.5c9.6-0.4,19.3,2.5,27.1,8.2
	c11.3,8.1,18.8,21.8,18.3,35.8C1584.5,217.6,1571.6,234.9,1553.9,240.6z"/>
</svg>
